{"asset":{"version":"2.0","generator":"VECTARY"},"nodes":[{"translation":[0.16299055198680878,0.3411004147390022,-0.2442499115262345],"scale":[0.001,0.001,0.001],"rotation":[-0.8742952296674222,0.1963794524809735,-0.10085412099142624,0.4322862573609173],"name":"Spot Light","extensions":{"KHR_lights_punctual":{"light":0}}},{"translation":[-0.0002499999999999929,-0.0005616368947900305,-1.1102230246251566e-19],"scale":[0.001,0.001,0.001],"rotation":[-0.7071067811865475,0,0,0.7071067811865476],"name":"Group - baked","children":[2,5]},{"translation":[32.74999999999999,0,31.77403189479003],"scale":[0.9258219999999999,0.1,0.9258219999999999],"rotation":[0,-0.38268343236508984,0,0.9238795325112867],"name":"Wired Cube 1 - baked 1","children":[3]},{"translation":[0,0,0],"scale":[1,1,1],"rotation":[0,0,0,1],"name":"Wired Cube","children":[4]},{"translation":[0,0,0],"scale":[1,1,1],"rotation":[0,0,0,1],"name":"Box","mesh":0},{"translation":[-32.75000000000001,0,90.56163689479003],"scale":[0.925822,0.1,0.925822],"rotation":[0,0.3826834323650899,0,0.9238795325112867],"name":"Wired Cube 2 - baked 1","children":[6]},{"translation":[0,0,0],"scale":[1,1,1],"rotation":[0,0,0,1],"name":"Wired Cube","children":[7]},{"translation":[0,0,0],"scale":[1,1,1],"rotation":[0,0,0,1],"name":"Box","mesh":1},{"translation":[-0.4137390406501014,0.20933457804450165,-1.1797936963334994],"scale":[1,1,1],"rotation":[-0.004948771513510891,-0.9833901589928535,-0.027127340359465957,0.17939735856901354],"name":"Camera","camera":0}],"extensions":{"KHR_lights_punctual":{"lights":[{"name":"Spot Light","type":"spot","intensity":0.4,"range":10000,"color":[1,1,1],"spot":{"innerConeAngle":0.667588438887831,"outerConeAngle":0.7853981633974483}}]}},"materials":[{"pbrMetallicRoughness":{"baseColorFactor":[0.4761772653974402,0.4368127538003594,0.4045408225679618,1],"metallicFactor":1,"roughnessFactor":0.05},"name":"Titanium Glossy","emissiveFactor":[0,0,0],"extensions":{},"alphaMode":"OPAQUE","doubleSided":false},{"pbrMetallicRoughness":{"baseColorFactor":[0.4761772653974402,0.4368127538003594,0.4045408225679618,1],"metallicFactor":1,"roughnessFactor":0.05},"name":"Titanium Glossy 1","emissiveFactor":[0,0,0],"extensions":{},"alphaMode":"OPAQUE","doubleSided":false}],"meshes":[{"primitives":[{"mode":4,"attributes":{"POSITION":1,"NORMAL":2,"TEXCOORD_0":3},"material":0,"indices":0}]},{"primitives":[{"mode":4,"attributes":{"POSITION":5,"NORMAL":6,"TEXCOORD_0":7},"material":1,"indices":4}]}],"accessors":[{"bufferView":0,"byteOffset":0,"componentType":5125,"count":3360,"type":"SCALAR"},{"bufferView":1,"byteOffset":0,"componentType":5126,"count":1251,"max":[50,50,100],"min":[-50,-50,0],"type":"VEC3"},{"bufferView":2,"byteOffset":0,"componentType":5126,"count":1251,"type":"VEC3"},{"bufferView":3,"byteOffset":0,"componentType":5126,"count":1251,"type":"VEC2"},{"bufferView":4,"byteOffset":0,"componentType":5125,"count":3360,"type":"SCALAR"},{"bufferView":5,"byteOffset":0,"componentType":5126,"count":1251,"max":[50,50,100],"min":[-50,-50,0],"type":"VEC3"},{"bufferView":6,"byteOffset":0,"componentType":5126,"count":1251,"type":"VEC3"},{"bufferView":7,"byteOffset":0,"componentType":5126,"count":1251,"type":"VEC2"}],"bufferViews":[{"buffer":0,"byteOffset":0,"byteLength":13440,"target":34963},{"buffer":0,"byteOffset":13440,"byteLength":15012,"target":34962},{"buffer":0,"byteOffset":28452,"byteLength":15012,"target":34962},{"buffer":0,"byteOffset":43464,"byteLength":10008,"target":34962},{"buffer":0,"byteOffset":53472,"byteLength":13440,"target":34963},{"buffer":0,"byteOffset":66912,"byteLength":15012,"target":34962},{"buffer":0,"byteOffset":81924,"byteLength":15012,"target":34962},{"buffer":0,"byteOffset":96936,"byteLength":10008,"target":34962}],"cameras":[{"name":"Camera","type":"perspective","extras":{"targetDistance":1.2309983233123913},"perspective":{"aspectRatio":1.228735632183908,"yfov":0.6108652381980153,"zfar":66.74461074694557,"znear":0.013690364006337807}}],"scene":0,"scenes":[{"nodes":[0,1,8],"name":"Project Name"}],"extensionsUsed":["KHR_texture_transform","KHR_lights_punctual"],"extensionsRequired":["KHR_lights_punctual"],"buffers":[{"byteLength":106944,"uri":"ProjectName.bin"}]}